<svg xmlns="http://www.w3.org/2000/svg" viewBox="0 0 640 420"><defs><linearGradient id="bg" x1="0" y1="0" x2="1" y2="1"><stop stop-color="#f0c76d"/><stop offset="1" stop-color="#60301f"/></linearGradient><linearGradient id="book" x1="0" y1="0" x2="1" y2="1"><stop stop-color="#9a4d2f"/><stop offset="1" stop-color="#4d2115"/></linearGradient><filter id="s"><feDropShadow dx="0" dy="14" stdDeviation="14" flood-opacity=".4"/></filter></defs><rect width="640" height="420" rx="30" fill="url(#bg)"/><circle cx="518" cy="88" r="56" fill="#ffe184" opacity=".4"/><g transform="translate(186 52) rotate(4 150 150)" filter="url(#s)"><path d="M30 20h252q24 0 24 24v284q0 24-24 24H30Q7 352 7 328V44Q7 20 30 20Z" fill="#281008"/><path d="M48 8h240q25 0 25 25v284q0 25-25 25H48q-24 0-24-25V33Q24 8 48 8Z" fill="url(#book)" stroke="#e0b14f" stroke-width="5"/><path d="M66 34h205v260H66z" fill="none" stroke="#e4b958" stroke-width="3"/><path d="M80 48h178v232H80z" fill="none" stroke="#e4b958" stroke-width="1.7"/><circle cx="169" cy="116" r="38" fill="none" stroke="#f9d575" stroke-width="4"/><path d="M169 68v96M121 116h96M136 83l67 67M202 83l-67 67" stroke="#f9d575" stroke-width="3"/><text x="169" y="206" text-anchor="middle" fill="#fff4ce" font-size="28" font-family="Georgia,serif" font-weight="700">TĂNG CHI BỘ</text><text x="169" y="237" text-anchor="middle" fill="#ecc66a" font-size="16" font-family="Georgia,serif">Aṅguttara Nikāya</text><path d="M101 264h136" stroke="#e1b85c" stroke-width="2"/></g><path d="M55 351c64-47 120-42 170 7-58-11-107 2-149 39 3-19-4-34-21-46Z" fill="#f6e5ad" opacity=".74"/><path d="M474 337c46 9 82 35 108 78-42-20-81-22-116-7 13-21 16-45 8-71Z" fill="#f6e5ad" opacity=".65"/></svg>