<svg xmlns="http://www.w3.org/2000/svg" viewBox="0 0 640 420"><defs><linearGradient id="bg" x1="0" y1="0" x2="1" y2="1"><stop stop-color="#f5d07e"/><stop offset="1" stop-color="#10364d"/></linearGradient><linearGradient id="book" x1="0" y1="0" x2="1" y2="1"><stop stop-color="#174e7a"/><stop offset="1" stop-color="#08243b"/></linearGradient><filter id="s"><feDropShadow dx="0" dy="14" stdDeviation="14" flood-opacity=".38"/></filter></defs><rect width="640" height="420" rx="30" fill="url(#bg)"/><circle cx="520" cy="92" r="58" fill="#ffe08a" opacity=".38"/><g transform="translate(185 52) rotate(5 150 150)" filter="url(#s)"><path d="M30 20h252q24 0 24 24v284q0 24-24 24H30Q7 352 7 328V44Q7 20 30 20Z" fill="#061822"/><path d="M48 8h240q25 0 25 25v284q0 25-25 25H48q-24 0-24-25V33Q24 8 48 8Z" fill="url(#book)" stroke="#e5b84e" stroke-width="5"/><path d="M66 34h205v260H66z" fill="none" stroke="#e2b44f" stroke-width="3"/><path d="M80 48h178v232H80z" fill="none" stroke="#e2b44f" stroke-width="1.7"/><circle cx="169" cy="116" r="38" fill="none" stroke="#f9d575" stroke-width="4"/><path d="M169 68v96M121 116h96M136 83l67 67M202 83l-67 67" stroke="#f9d575" stroke-width="3"/><path d="M101 264h136" stroke="#e1b85c" stroke-width="2"/></g><g fill="#f6e7b6" opacity=".86"><path d="M78 347c37-25 73-29 110-11-30 2-54 15-72 39 31-8 61-3 89 15-56 13-99-1-127-43Z"/><path d="M500 332c18 12 31 30 37 55-17-14-36-20-59-17 18 10 31 25 39 44-36-13-54-40-53-79Z"/></g></svg>