<svg xmlns="http://www.w3.org/2000/svg" viewBox="0 0 640 420"><defs><linearGradient id="bg" x1="0" y1="0" x2="1" y2="1"><stop stop-color="#f2c96f"/><stop offset="1" stop-color="#144933"/></linearGradient><linearGradient id="book" x1="0" y1="0" x2="1" y2="1"><stop stop-color="#1b6546"/><stop offset="1" stop-color="#0b2e21"/></linearGradient><filter id="s"><feDropShadow dx="0" dy="14" stdDeviation="14" flood-opacity=".38"/></filter></defs><rect width="640" height="420" rx="30" fill="url(#bg)"/><circle cx="505" cy="86" r="52" fill="#ffe289" opacity=".4"/><g transform="translate(188 52) rotate(-4 150 150)" filter="url(#s)"><path d="M30 20h252q24 0 24 24v284q0 24-24 24H30Q7 352 7 328V44Q7 20 30 20Z" fill="#071b13"/><path d="M48 8h240q25 0 25 25v284q0 25-25 25H48q-24 0-24-25V33Q24 8 48 8Z" fill="url(#book)" stroke="#dfb455" stroke-width="5"/><path d="M66 34h205v260H66z" fill="none" stroke="#dfb455" stroke-width="3"/><path d="M80 48h178v232H80z" fill="none" stroke="#dfb455" stroke-width="1.7"/><circle cx="169" cy="116" r="38" fill="none" stroke="#f7d675" stroke-width="4"/><path d="M169 68v96M121 116h96M136 83l67 67M202 83l-67 67" stroke="#f7d675" stroke-width="3"/><path d="M101 264h136" stroke="#e1b85c" stroke-width="2"/></g><path d="M63 353c70-50 126-39 179 4-60-6-113 10-159 48 5-19 0-36-20-52Z" fill="#f5e6ae" opacity=".7"/><path d="M471 330c53 12 88 41 105 87-39-26-77-34-116-22 19-18 23-39 11-65Z" fill="#f5e6ae" opacity=".65"/></svg>