<svg xmlns="http://www.w3.org/2000/svg" viewBox="0 0 1600 900" role="img" aria-label="Ancient palm-leaf Buddhist manuscript with lotus and Dharma wheel">
<defs><linearGradient id="g" x1="0" y1="0" x2="1" y2="1"><stop stop-color="#173b32"/><stop offset=".48" stop-color="#73551f"/><stop offset="1" stop-color="#e2b859"/></linearGradient></defs><rect width="1600" height="900" fill="url(#g)"/>
<g transform="translate(675 170) rotate(-4 360 260)"><rect x="0" y="0" width="720" height="92" rx="35" fill="#d8aa51"/><rect x="-38" y="102" width="790" height="96" rx="38" fill="#edcc82"/><rect x="15" y="207" width="708" height="96" rx="37" fill="#c6923d"/><rect x="-24" y="312" width="765" height="95" rx="38" fill="#f0d28d"/><rect x="12" y="417" width="710" height="95" rx="38" fill="#d1a24e"/><g stroke="#6b4b19" stroke-width="8" stroke-linecap="round" opacity=".55"><path d="M70 48h580M35 148h650M82 253h560M42 358h645M77 463h570"/></g><g fill="#684716"><circle cx="90" cy="46" r="10"/><circle cx="635" cy="46" r="10"/><circle cx="52" cy="150" r="10"/><circle cx="675" cy="150" r="10"/></g></g>
<g transform="translate(245 520)" fill="#f6d98d" opacity=".9"><path d="M210 150c-86-95-65-183 0-244 65 61 86 149 0 244z"/><path d="M210 150c-98-56-164-35-205 18 65 19 136 13 205-18z"/><path d="M210 150c98-56 164-35 205 18-65 19-136 13-205-18z"/><path d="M210 151c-52-83-110-104-166-82 30 58 85 87 166 82z"/><path d="M210 151c52-83 110-104 166-82-30 58-85 87-166 82z"/></g>
<g transform="translate(245 210)" stroke="#f8df9b" stroke-width="8" fill="none" opacity=".78"><circle cx="165" cy="165" r="120"/><circle cx="165" cy="165" r="25"/><path d="M165 45v240M45 165h240M80 80l170 170M250 80L80 250"/></g>
</svg>