<svg xmlns="http://www.w3.org/2000/svg" viewBox="0 0 128 128"><rect width="128" height="128" rx="28" fill="#07543f"/><circle cx="64" cy="42" r="24" fill="#f3c85d" opacity=".2"/><path d="M22 67c17-11 32-12 42-5v36c-11-8-25-8-42 2V67zm84 0c-17-11-32-12-42-5v36c11-8 25-8 42 2V67z" fill="#fff6dd"/><path d="M64 61v39" stroke="#e1ad39" stroke-width="5" stroke-linecap="round"/><g stroke="#f5cf6c" stroke-width="4" fill="none"><circle cx="64" cy="40" r="18"/><path d="M64 22v36M46 40h36M51 27l26 26M77 27L51 53"/></g><path d="M64 17c8 10 10 20 0 29-10-9-8-19 0-29z" fill="#fff1b9"/></svg>